<?xml version="1.0" standalone="no"?>
<!DOCTYPE svg PUBLIC "-//W3C//DTD SVG 20010904//EN"
 "http://www.w3.org/TR/2001/REC-SVG-20010904/DTD/svg10.dtd">
<svg version="1.0" xmlns="http://www.w3.org/2000/svg"
 width="566.000000pt" height="566.000000pt" viewBox="0 0 566.000000 566.000000"
 preserveAspectRatio="xMidYMid meet">
<metadata>
Created by potrace 1.11, written by Peter Selinger 2001-2013
</metadata>
<g transform="translate(0.000000,566.000000) scale(0.100000,-0.100000)"
fill="#000000" stroke="none">
<path d="M2729 5646 c-26 -7 -129 -60 -230 -118 -1618 -932 -2009 -1161 -2050
-1200 -26 -25 -60 -72 -80 -113 l-34 -70 -3 -1294 c-2 -1161 -1 -1301 14
-1350 18 -65 59 -132 106 -178 18 -18 229 -145 468 -283 239 -139 731 -423
1094 -633 362 -209 675 -386 695 -393 48 -17 187 -17 242 0 24 7 534 297 1134
643 818 472 1101 641 1135 674 25 25 59 72 75 105 l30 59 0 1330 0 1330 -32
65 c-18 36 -51 84 -75 106 -28 27 -281 179 -718 431 -371 215 -862 498 -1091
631 -231 133 -440 248 -470 256 -62 19 -146 20 -210 2z m1511 -1995 c151 -4
-483 -7 -1410 -7 -927 0 -1575 3 -1440 6 357 8 2528 8 2850 1z m-856 -353 c75
-25 146 -71 213 -140 l53 -54 -75 -74 -75 -74 -17 24 c-29 43 -94 99 -142 122
-69 34 -179 31 -254 -6 -61 -29 -114 -82 -149 -148 -19 -36 -23 -58 -23 -138
0 -84 3 -101 27 -146 70 -133 232 -206 354 -159 67 25 154 110 154 150 0 3
-49 5 -110 5 l-110 0 0 100 0 100 225 0 225 0 0 -57 c0 -164 -51 -295 -150
-386 -277 -257 -735 -99 -816 281 -23 111 -16 192 26 304 58 157 220 287 393
318 70 12 179 3 251 -22z m1041 10 c151 -39 302 -180 355 -332 64 -188 16
-391 -128 -533 -282 -280 -767 -149 -867 234 -17 66 -19 188 -4 253 36 158
186 320 343 370 92 29 206 32 301 8z m-3293 -180 l3 -183 168 -3 167 -2 0 185
0 186 103 -3 102 -3 3 -497 2 -498 -105 0 -105 0 0 215 0 215 -170 0 -170 0 0
-215 0 -215 -100 0 -100 0 0 500 0 500 100 0 100 0 2 -182z m910 -165 c3 -328
4 -350 24 -388 28 -56 91 -88 162 -82 56 4 91 24 126 71 20 26 21 44 26 384
l5 357 103 3 102 3 0 -349 c0 -384 -4 -413 -62 -504 -36 -58 -87 -99 -165
-136 -78 -36 -208 -38 -295 -3 -118 46 -207 160 -228 291 -11 71 -14 683 -3
693 3 4 50 7 104 7 l98 0 3 -347z m2053 -994 c-464 -8 -2053 -8 -2525 0 -204
4 350 7 1260 7 908 0 1466 -3 1265 -7z m-1725 -357 l0 -78 -34 -2 c-44 -3 -65
26 -47 65 9 21 17 24 41 21 29 -4 30 -3 30 34 0 21 2 38 5 38 3 0 5 -35 5 -78z
m1101 4 c18 11 57 -5 64 -26 11 -34 -12 -61 -51 -58 l-34 2 2 81 c1 46 3 62 5
37 3 -25 8 -40 14 -36z m-1562 50 c9 -11 10 -20 1 -35 -13 -25 3 -63 23 -56 7
3 12 -4 12 -19 0 -18 -3 -22 -12 -14 -9 7 -17 7 -27 -2 -20 -15 -56 -9 -70 12
-8 13 -5 22 12 41 14 15 20 30 16 41 -6 16 11 46 26 46 4 0 13 -6 19 -14z
m851 -9 c0 -2 -12 -3 -27 -2 -39 0 -39 -22 1 -46 37 -21 45 -46 24 -67 -17
-17 -53 -15 -68 3 -15 18 -7 19 19 3 15 -9 23 -9 35 1 23 20 20 29 -19 52 -38
23 -46 52 -18 68 15 8 53 -1 53 -12z m-1360 -60 c12 -32 20 -60 17 -63 -3 -3
-8 4 -12 15 -5 16 -15 21 -40 21 -25 0 -35 -5 -40 -21 -4 -11 -9 -18 -12 -15
-4 3 6 35 22 71 15 37 31 63 35 58 4 -4 17 -34 30 -66z m133 66 c-16 -3 -23
-11 -23 -29 0 -18 6 -24 23 -25 l22 -2 -22 -4 c-17 -3 -23 -13 -26 -41 -2 -20
-4 -4 -5 36 l-2 72 28 -1 c23 -2 24 -2 5 -6z m539 -63 l20 -45 20 50 c11 28
23 54 27 58 5 5 14 -21 21 -58 7 -36 10 -68 7 -71 -3 -4 -9 11 -13 32 -12 67
-19 69 -41 12 l-21 -53 -25 55 -24 55 -8 -40 c-9 -46 -24 -81 -24 -55 -1 18
17 98 25 120 6 13 7 13 12 0 3 -8 14 -35 24 -60z m1108 25 c7 -25 16 -48 20
-50 4 -3 17 19 29 47 24 58 30 56 57 -16 l18 -49 19 57 c11 32 21 55 24 53 5
-6 -27 -118 -38 -130 -3 -5 -17 20 -31 54 l-25 61 -26 -63 c-16 -40 -27 -58
-31 -49 -26 67 -44 130 -37 130 5 0 14 -20 21 -45z m723 38 c-27 -4 -33 -9
-33 -29 0 -19 5 -24 28 -25 l27 -2 -27 -4 c-23 -4 -28 -9 -28 -33 0 -25 4 -29
33 -33 31 -4 31 -4 -5 -5 l-38 -2 0 70 0 70 38 -2 c36 -1 36 -1 5 -5z m-2130
-43 c8 0 7 -4 -1 -12 -7 -7 -13 -28 -14 -47 -1 -34 -1 -33 -7 9 -7 46 -1 103
7 68 2 -10 9 -18 15 -18z m1040 0 c8 0 7 -4 -1 -12 -7 -7 -13 -28 -14 -47 -1
-34 -1 -33 -7 9 -7 46 -1 103 7 68 2 -10 9 -18 15 -18z m139 13 c5 -29 -4
-103 -13 -103 -5 0 -9 27 -9 60 0 55 14 83 22 43z m730 0 c5 -29 -4 -103 -13
-103 -5 0 -9 27 -9 60 0 55 14 83 22 43z m-2032 -58 c0 -44 -8 -49 -57 -39
-17 3 -23 11 -23 32 0 36 17 53 52 50 26 -2 28 -6 28 -43z m75 35 c3 -5 0 -7
-8 -4 -8 3 -18 1 -21 -5 -4 -5 3 -13 14 -16 29 -9 23 -49 -7 -53 -13 -2 -23 1
-23 6 0 6 9 8 20 5 14 -4 20 0 20 10 0 9 -9 19 -20 22 -30 9 -25 45 6 45 7 0
16 -4 19 -10z m533 -2 c7 -7 12 -21 12 -33 0 -12 -5 -26 -12 -33 -7 -7 -21
-12 -33 -12 -12 0 -26 5 -33 12 -7 7 -12 21 -12 33 0 12 5 26 12 33 7 7 21 12
33 12 12 0 26 -5 33 -12z m200 0 c23 -23 13 -38 -24 -38 -24 0 -34 -4 -31 -12
2 -7 16 -13 30 -13 15 1 23 -3 18 -8 -15 -15 -53 -3 -62 19 -15 43 38 83 69
52z m55 4 c-6 -4 -13 -25 -16 -47 -4 -40 -4 -40 -5 8 -2 39 1 47 16 47 11 0
13 -3 5 -8z m89 -4 c11 -18 10 -78 -2 -78 -5 0 -10 18 -10 40 0 45 -26 58 -34
18 -3 -13 -7 -32 -9 -43 -3 -11 -5 0 -6 25 -1 43 1 46 26 48 15 1 30 -4 35
-10z m308 -33 c0 -40 -1 -41 -35 -43 -29 -2 -37 2 -46 21 -18 39 3 68 47 65
33 -2 34 -3 34 -43z m77 -22 c-2 -16 -4 -5 -4 22 0 28 2 40 4 28 2 -13 2 -35
0 -50z m93 59 c0 -5 -10 -8 -21 -8 -12 1 -26 -6 -32 -16 -16 -24 9 -51 41 -43
15 4 21 2 17 -5 -8 -14 -48 -13 -63 2 -29 29 -7 78 35 78 13 0 23 -4 23 -8z
m338 -4 c23 -23 13 -38 -23 -38 -19 0 -35 -5 -35 -10 0 -18 31 -24 52 -11 16
10 19 10 16 -1 -6 -18 -46 -22 -64 -8 -29 25 -11 80 26 80 9 0 21 -5 28 -12z
m157 -2 c-18 -13 -18 -14 4 -21 30 -9 25 -49 -6 -53 -13 -2 -23 1 -23 6 0 6 9
8 20 5 14 -4 20 0 20 10 0 9 -9 19 -20 22 -31 10 -25 45 9 45 12 0 11 -3 -4
-14z m62 -53 c-2 -16 -4 -5 -4 22 0 28 2 40 4 28 2 -13 2 -35 0 -50z m131 55
c23 -23 13 -38 -24 -38 -24 0 -34 -4 -31 -12 2 -7 16 -13 30 -13 15 1 23 -3
18 -8 -15 -15 -53 -3 -62 19 -15 43 38 83 69 52z m238 -38 l1 -45 -4 43 c-3
34 -8 43 -21 40 -11 -2 -19 -17 -23 -43 l-6 -40 -2 46 c-1 44 0 46 27 45 25
-1 27 -4 28 -46z m114 -6 c0 -55 -17 -84 -49 -84 -19 0 -41 18 -41 34 0 5 9 1
20 -9 21 -19 50 -14 50 10 0 9 -9 15 -23 15 -29 0 -47 18 -47 45 0 31 20 46
57 43 33 -2 33 -2 33 -54z m37 -11 c-2 -16 -4 -5 -4 22 0 28 2 40 4 28 2 -13
2 -35 0 -50z m89 17 l1 -45 -4 43 c-3 34 -8 43 -21 40 -11 -2 -19 -17 -23 -43
l-6 -40 -2 46 c-1 44 0 46 27 45 25 -1 27 -4 28 -46z m103 31 c13 -24 5 -31
-35 -31 -26 0 -32 -4 -28 -15 7 -18 35 -20 53 -2 11 10 13 9 9 -3 -6 -19 -45
-25 -64 -10 -17 15 -18 52 -2 68 18 18 56 14 67 -7z"/>
<path d="M4223 3120 c-62 -13 -114 -43 -160 -93 -70 -76 -78 -98 -78 -217 0
-121 13 -155 86 -228 67 -66 119 -87 214 -87 100 1 166 27 228 94 145 155 100
416 -86 505 -59 28 -142 39 -204 26z"/>
<path d="M2307 1604 c-13 -13 -7 -55 9 -61 24 -9 51 23 38 45 -12 19 -36 27
-47 16z"/>
<path d="M3471 1596 c-19 -23 -4 -58 22 -54 17 2 22 10 22 33 0 34 -24 45 -44
21z"/>
<path d="M1877 1654 c-8 -8 1 -24 14 -24 5 0 9 7 9 15 0 15 -12 20 -23 9z"/>
<path d="M1862 1591 c-18 -11 -12 -45 8 -48 27 -5 46 14 34 34 -13 21 -25 25
-42 14z"/>
<path d="M1352 1615 c-11 -23 -9 -25 12 -25 19 0 23 4 19 20 -8 31 -19 32 -31
5z"/>
<path d="M1584 1596 c-11 -29 0 -51 26 -51 21 0 25 5 25 30 0 24 -5 31 -23 33
-13 2 -24 -3 -28 -12z"/>
<path d="M2200 1596 c-27 -33 18 -72 48 -42 13 13 14 20 6 34 -15 23 -38 26
-54 8z"/>
<path d="M2407 1603 c-15 -14 -6 -23 24 -23 27 0 30 2 19 15 -13 16 -32 19
-43 8z"/>
<path d="M2841 1591 c-13 -24 9 -57 33 -48 23 9 31 34 16 52 -17 20 -37 19
-49 -4z"/>
<path d="M3367 1604 c-15 -15 -6 -24 24 -24 20 0 29 4 27 13 -5 14 -40 21 -51
11z"/>
<path d="M3717 1603 c-15 -14 -6 -23 24 -23 27 0 30 2 19 15 -13 16 -32 19
-43 8z"/>
<path d="M4050 1595 c-15 -18 -7 -43 16 -52 24 -9 46 24 33 48 -12 23 -32 24
-49 4z"/>
<path d="M4290 1595 c-11 -13 -8 -15 20 -15 21 0 30 4 28 13 -7 18 -33 20 -48
2z"/>
</g>
</svg>
